<?xml version="1.0" encoding="UTF-8" standalone="no"?><!DOCTYPE svg PUBLIC "-//W3C//DTD SVG 1.1//EN" "http://www.w3.org/Graphics/SVG/1.1/DTD/svg11.dtd"><svg width="100%" height="100%" viewBox="0 0 48 48" version="1.1" xmlns="http://www.w3.org/2000/svg" xmlns:xlink="http://www.w3.org/1999/xlink" xml:space="preserve" xmlns:serif="http://www.serif.com/" style="fill-rule:evenodd;clip-rule:evenodd;stroke-linejoin:round;stroke-miterlimit:2;"><path d="M15.416,41.718c-0.22,-1.834 -0.367,-4.696 0.073,-6.75c0.44,-1.835 2.715,-11.667 2.715,-11.667c-0,0 -0.66,-1.394 -0.66,-3.449c-0,-3.301 1.907,-5.723 4.255,-5.723c1.981,0 3.009,1.541 3.009,3.302c-0,1.981 -1.248,4.99 -1.981,7.778c-0.514,2.348 1.174,4.255 3.448,4.255c4.109,0 7.338,-4.402 7.338,-10.712c-0,-5.577 -4.036,-9.539 -9.759,-9.539c-6.677,0 -10.566,4.99 -10.566,10.126c-0,1.981 0.807,4.109 1.761,5.356c0.22,0.22 0.22,0.44 0.147,0.66c-0.22,0.734 -0.587,2.348 -0.661,2.642c-0.073,0.44 -0.367,0.514 -0.807,0.293c-2.935,-1.394 -4.696,-5.649 -4.696,-9.098c-0,-7.337 5.357,-14.161 15.482,-14.161c8.145,0 14.454,5.796 14.454,13.501c0,8.071 -5.063,14.601 -12.107,14.601c-2.421,0 -4.549,-1.247 -5.356,-2.715c0,0 -1.174,4.476 -1.468,5.577c-0.513,2.054 -1.981,4.549 -2.935,6.163c0,0 -0.558,0.932 -1.062,0.797c-0.451,-0.121 -0.625,-1.237 -0.625,-1.237Z" style="fill:#e81b22;fill-rule:nonzero;"/></svg>