<?xml version="1.0" encoding="UTF-8" standalone="no"?><!DOCTYPE svg PUBLIC "-//W3C//DTD SVG 1.1//EN" "http://www.w3.org/Graphics/SVG/1.1/DTD/svg11.dtd"><svg width="100%" height="100%" viewBox="0 0 48 48" version="1.1" xmlns="http://www.w3.org/2000/svg" xmlns:xlink="http://www.w3.org/1999/xlink" xml:space="preserve" xmlns:serif="http://www.serif.com/" style="fill-rule:evenodd;clip-rule:evenodd;stroke-linejoin:round;stroke-miterlimit:2;"><path d="M38.76,13.775l2.312,-2.905c0.711,-0.771 0.889,-1.363 0.948,-1.719c-1.778,1.126 -3.497,1.482 -4.683,1.482l-0.474,0l-0.297,-0.296c-1.482,-1.305 -3.26,-2.016 -5.275,-2.016c-4.268,0 -7.706,3.497 -7.706,7.706c0,0.297 0,0.593 0.059,0.889l0.178,1.245l-1.304,-0.059c-7.825,-0.178 -14.227,-6.876 -15.294,-8.062c-1.719,3.142 -0.771,6.046 0.296,7.884l2.075,3.438l-3.26,-1.778c0.059,2.549 1.067,4.564 2.905,6.046l1.6,1.186l-1.66,0.652c1.067,3.141 3.32,4.386 5.098,4.92l2.253,0.593l-1.957,1.363c-3.378,2.371 -7.706,2.252 -9.543,2.075c3.912,2.667 8.417,3.26 11.677,3.26c2.372,0 4.15,-0.297 4.565,-0.415c17.19,-4.031 17.961,-19.325 17.902,-22.407l0,-0.474l0.355,-0.297c2.075,-1.956 2.964,-3.023 3.438,-3.615c-0.177,0.118 -0.415,0.177 -0.711,0.237l-3.497,1.067Z" style="fill:#059ff5;fill-rule:nonzero;"/></svg>