<?xml version="1.0" encoding="UTF-8" standalone="no"?><!DOCTYPE svg PUBLIC "-//W3C//DTD SVG 1.1//EN" "http://www.w3.org/Graphics/SVG/1.1/DTD/svg11.dtd"><svg width="100%" height="100%" viewBox="0 0 48 48" version="1.1" xmlns="http://www.w3.org/2000/svg" xmlns:xlink="http://www.w3.org/1999/xlink" xml:space="preserve" xmlns:serif="http://www.serif.com/" style="fill-rule:evenodd;clip-rule:evenodd;stroke-linejoin:round;stroke-miterlimit:2;"><path d="M45.116,13.442c-0.548,-2.222 -2.252,-3.896 -4.43,-4.531c-0.008,-0.002 -0.016,-0.004 -0.024,-0.007c-3.332,-0.884 -16.662,-0.904 -16.662,-0.904c-0,0 -13.324,0.02 -16.661,0.904c-2.178,0.558 -3.827,2.291 -4.449,4.514c-0.002,0.008 -0.004,0.015 -0.006,0.023c-0.874,3.429 -0.884,10.559 -0.884,10.559c-0,-0 0.01,7.13 0.883,10.559c0.548,2.222 2.252,3.896 4.43,4.531c0.008,0.002 0.016,0.004 0.024,0.007c3.333,0.884 16.663,0.903 16.663,0.903c-0,-0 13.323,-0.019 16.66,-0.903c2.178,-0.558 3.827,-2.291 4.45,-4.514c0.002,-0.008 0.004,-0.016 0.006,-0.023c0.873,-3.429 0.884,-10.56 0.884,-10.56c0,-0 -0.011,-7.129 -0.884,-10.558Zm-1.941,0.484c0.001,0.003 0.002,0.006 0.003,0.009c0.832,3.268 0.822,10.065 0.822,10.065c0,0 0.01,6.777 -0.819,10.051c-0.429,1.522 -1.532,2.73 -3.022,3.11c-0.003,0.001 -0.006,0.002 -0.01,0.002c-3.229,0.857 -16.149,0.837 -16.149,0.837c-0,0 -12.876,0.02 -16.133,-0.832c-1.494,-0.44 -2.671,-1.573 -3.043,-3.093c-0.001,-0.003 -0.001,-0.006 -0.002,-0.009c-0.833,-3.268 -0.822,-10.066 -0.822,-10.066c-0,0 -0.011,-6.776 0.818,-10.05c0.43,-1.522 1.533,-2.73 3.023,-3.11c0.003,-0.001 0.006,-0.002 0.009,-0.002c3.23,-0.857 16.15,-0.838 16.15,-0.838c-0,0 12.875,-0.019 16.133,0.833c1.493,0.439 2.67,1.573 3.042,3.093Zm-23.591,16.697l-0,-13.245l11.452,6.622l-11.452,6.623Z" style="fill:#f00;"/></svg>