<?xml version="1.0" encoding="UTF-8" standalone="no"?><!DOCTYPE svg PUBLIC "-//W3C//DTD SVG 1.1//EN" "http://www.w3.org/Graphics/SVG/1.1/DTD/svg11.dtd"><svg width="100%" height="100%" viewBox="0 0 48 48" version="1.1" xmlns="http://www.w3.org/2000/svg" xmlns:xlink="http://www.w3.org/1999/xlink" xml:space="preserve" xmlns:serif="http://www.serif.com/" style="fill-rule:evenodd;clip-rule:evenodd;stroke-linejoin:round;stroke-miterlimit:2;"><path d="M40.184,5.062l-32.312,-0c-1.539,-0 -2.781,1.243 -2.781,2.723l0,32.43c0,1.48 1.242,2.723 2.781,2.723l32.253,0c1.539,0 2.781,-1.243 2.781,-2.723l0,-32.43c0.06,-1.48 -1.183,-2.723 -2.722,-2.723Zm-23.849,32.253l-5.622,-0l0,-18.049l5.622,-0l0,18.049Zm-2.841,-20.535c-1.775,-0 -3.255,-1.479 -3.255,-3.255c0,-1.775 1.48,-3.255 3.255,-3.255c1.776,-0 3.255,1.48 3.255,3.255c0,1.835 -1.42,3.255 -3.255,3.255Zm23.85,20.535l-5.623,-0l0,-8.758c0,-2.071 -0.059,-4.794 -2.899,-4.794c-2.9,-0 -3.374,2.308 -3.374,4.616l0,8.936l-5.622,0l0,-18.049l5.386,-0l0,2.485l0.059,-0c0.769,-1.42 2.604,-2.9 5.326,-2.9c5.681,-0 6.747,3.729 6.747,8.641l0,9.823Z" style="fill:#0a66c2;fill-rule:nonzero;"/></svg>