<?xml version="1.0" encoding="UTF-8" standalone="no"?><!DOCTYPE svg PUBLIC "-//W3C//DTD SVG 1.1//EN" "http://www.w3.org/Graphics/SVG/1.1/DTD/svg11.dtd"><svg width="100%" height="100%" viewBox="0 0 48 48" version="1.1" xmlns="http://www.w3.org/2000/svg" xmlns:xlink="http://www.w3.org/1999/xlink" xml:space="preserve" xmlns:serif="http://www.serif.com/" style="fill-rule:evenodd;clip-rule:evenodd;stroke-linejoin:round;stroke-miterlimit:2;"><path d="M36.713,11.231c-3.375,-3.375 -7.875,-5.231 -12.657,-5.231c-9.787,0 -17.831,7.987 -17.831,17.831c-0,3.15 0.844,6.188 2.363,8.944l-2.532,9.225l9.507,-2.475c2.587,1.406 5.512,2.194 8.55,2.194c9.843,-0.056 17.831,-8.044 17.831,-17.888c0,-4.725 -1.913,-9.225 -5.231,-12.6Zm-12.657,27.45c-2.643,0 -5.287,-0.731 -7.593,-2.081l-0.563,-0.337l-5.625,1.462l1.519,-5.456l-0.338,-0.563c-1.462,-2.362 -2.25,-5.118 -2.25,-7.875c-0,-8.156 6.638,-14.794 14.85,-14.794c3.938,0 7.707,1.575 10.463,4.332c2.756,2.756 4.331,6.525 4.331,10.518c0.056,8.157 -6.581,14.794 -14.794,14.794Zm8.157,-11.081c-0.45,-0.225 -2.644,-1.294 -3.094,-1.406c-0.394,-0.169 -0.731,-0.225 -1.013,0.225c-0.281,0.45 -1.181,1.406 -1.406,1.744c-0.281,0.281 -0.506,0.337 -0.956,0.112c-0.45,-0.225 -1.856,-0.675 -3.6,-2.25c-1.294,-1.181 -2.25,-2.644 -2.475,-3.094c-0.281,-0.45 -0.056,-0.675 0.225,-0.9c0.225,-0.225 0.45,-0.506 0.675,-0.787c0.225,-0.282 0.281,-0.45 0.45,-0.732c0.169,-0.281 0.056,-0.562 -0.056,-0.787c-0.113,-0.225 -1.013,-2.419 -1.407,-3.319c-0.337,-0.9 -0.731,-0.731 -1.012,-0.731l-0.844,0c-0.281,0 -0.787,0.112 -1.181,0.562c-0.394,0.45 -1.575,1.519 -1.575,3.713c-0,2.194 1.575,4.275 1.856,4.613c0.225,0.281 3.15,4.837 7.594,6.75c1.069,0.45 1.912,0.731 2.531,0.956c1.069,0.337 2.025,0.281 2.813,0.169c0.9,-0.113 2.643,-1.069 3.037,-2.138c0.338,-1.012 0.338,-1.969 0.281,-2.137c-0.112,-0.282 -0.393,-0.394 -0.843,-0.563Z" style="fill:#25d366;fill-rule:nonzero;"/></svg>