<?xml version="1.0" encoding="UTF-8" standalone="no"?><!DOCTYPE svg PUBLIC "-//W3C//DTD SVG 1.1//EN" "http://www.w3.org/Graphics/SVG/1.1/DTD/svg11.dtd"><svg width="100%" height="100%" viewBox="0 0 48 48" version="1.1" xmlns="http://www.w3.org/2000/svg" xmlns:xlink="http://www.w3.org/1999/xlink" xml:space="preserve" xmlns:serif="http://www.serif.com/" style="fill-rule:evenodd;clip-rule:evenodd;stroke-linejoin:round;stroke-miterlimit:2;"><path d="M23.999,4.877c-10.554,0 -19.122,8.569 -19.122,19.123c0,10.554 8.568,19.123 19.123,19.123c10.554,-0.001 19.123,-8.57 19.123,-19.124c-0.001,-10.554 -8.57,-19.122 -19.124,-19.122Zm3.173,23.486c-0.097,0.027 -0.193,0.055 -0.289,0.083c-5.828,1.709 -10.812,4.627 -14.457,8.158c3.049,2.8 7.113,4.51 11.573,4.51c2.053,0 4.021,-0.362 5.846,-1.026c-0.406,-3.69 -1.289,-7.667 -2.673,-11.725Zm13.661,-1.262c-3.66,-0.401 -7.649,-0.174 -11.712,0.761c1.33,3.93 2.204,7.785 2.647,11.39c4.662,-2.382 8.092,-6.839 9.065,-12.151Zm-16.424,-5.518c-6.168,1.658 -12.238,1.752 -17.425,0.557c-0.066,0.612 -0.1,1.232 -0.1,1.86c0,4.264 1.563,8.166 4.146,11.163c3.856,-3.736 9.123,-6.835 15.288,-8.642c0.058,-0.017 0.116,-0.034 0.173,-0.051c-0.206,-0.544 -0.42,-1.09 -0.644,-1.636c-0.457,-1.112 -0.937,-2.197 -1.438,-3.252Zm13.937,-6.913c-3.31,2.646 -7.381,4.854 -11.989,6.339c0.469,0.996 0.918,2.018 1.347,3.063c0.258,0.63 0.504,1.258 0.739,1.886c4.383,-1.035 8.69,-1.285 12.636,-0.85c0.023,-0.366 0.035,-0.735 0.035,-1.108c0,-3.441 -1.018,-6.646 -2.768,-9.33Zm-22.254,-5.849c-4.374,2.285 -7.64,6.406 -8.774,11.336c4.814,1.131 10.445,1.069 16.181,-0.41c-2.198,-4.258 -4.738,-7.965 -7.407,-10.927Zm21.06,4.235c-3.141,-3.769 -7.869,-6.168 -13.153,-6.168c-2.104,-0 -4.121,0.38 -5.984,1.077c2.689,3.077 5.243,6.879 7.451,11.222c4.502,-1.415 8.477,-3.553 11.686,-6.131Z" style="fill:#e84c88;"/></svg>