<?xml version="1.0" encoding="UTF-8" standalone="no"?><!DOCTYPE svg PUBLIC "-//W3C//DTD SVG 1.1//EN" "http://www.w3.org/Graphics/SVG/1.1/DTD/svg11.dtd"><svg width="100%" height="100%" viewBox="0 0 48 48" version="1.1" xmlns="http://www.w3.org/2000/svg" xmlns:xlink="http://www.w3.org/1999/xlink" xml:space="preserve" xmlns:serif="http://www.serif.com/" style="fill-rule:evenodd;clip-rule:evenodd;stroke-linejoin:round;stroke-miterlimit:2;"><path d="M21.577,38.532c0.121,0.357 0.047,0.911 0.002,1.272c-0.033,0.193 -0.239,1.378 -0.294,1.599c-0.01,0.039 -0.017,0.078 -0.022,0.118c-0.03,0.24 -0.089,0.654 -0.038,1.026c0.062,0.454 0.265,0.855 0.62,1.126c0.396,0.303 1.165,0.561 2.556,-0.053c2.181,-0.905 11.716,-6.939 15.986,-11.84c3.114,-3.319 4.553,-6.785 4.553,-10.573c0,-9.399 -9.373,-17.202 -20.94,-17.202c-11.568,0 -20.94,7.803 -20.94,17.202c0,8.421 7.413,15.611 17.539,16.939c0.227,0.048 0.512,0.126 0.758,0.246c0.074,0.036 0.182,0.113 0.22,0.14Zm1.657,3.387l0.008,-0.103c0.084,-0.39 0.31,-1.682 0.31,-1.682c0.003,-0.016 0.005,-0.031 0.007,-0.047c0.078,-0.624 0.117,-1.632 -0.111,-2.263c-0.139,-0.415 -0.473,-0.799 -0.943,-1.082c-0.466,-0.281 -1.077,-0.469 -1.549,-0.564c-0.023,-0.004 -0.045,-0.008 -0.068,-0.011c-9.05,-1.175 -15.828,-7.438 -15.828,-14.96c0,-8.423 8.573,-15.202 18.94,-15.202c10.367,0 18.94,6.779 18.94,15.202c0,3.309 -1.299,6.319 -4.028,9.222c-0.009,0.01 -0.018,0.019 -0.026,0.029c-4.076,4.685 -13.198,10.47 -15.267,11.322l-0.385,0.139Zm6.748,-15.977c0,0.187 -0.187,0.374 -0.374,0.374l-1.496,0c-0.062,0 -0.062,-0.062 -0.124,-0.124l-3.988,-5.359l0,5.172c0,0.187 -0.187,0.374 -0.374,0.374l-1.371,0c-0.187,0 -0.374,-0.187 -0.374,-0.374l0,-8.724c0,-0.187 0.187,-0.374 0.374,-0.374l1.371,0l0.062,0.062l3.988,5.359l0,-5.172c0,-0.187 0.187,-0.374 0.374,-0.374l1.558,0c0.187,0 0.374,0.187 0.374,0.374l0,8.786Zm-13.024,0c0,0.187 -0.186,0.374 -0.373,0.374l-5.609,0c-0.124,0 -0.186,-0.062 -0.249,-0.124c-0.062,-0.063 -0.124,-0.187 -0.124,-0.25l0,-8.661c0,-0.187 0.187,-0.374 0.373,-0.374l1.371,0c0.187,0 0.374,0.187 0.374,0.374l0,6.917l3.801,0c0.187,0 0.374,0.187 0.374,0.374l0.062,1.37Zm3.365,0c0,0.187 -0.187,0.374 -0.374,0.374l-1.37,0c-0.187,0 -0.374,-0.187 -0.374,-0.374l0,-8.661c0,-0.187 0.187,-0.374 0.374,-0.374l1.37,0c0.187,0 0.374,0.187 0.374,0.374l0,8.661Zm17.386,-7.29c0,0.187 -0.187,0.374 -0.374,0.374l-3.801,0l0,1.495l3.801,0c0.187,0 0.374,0.187 0.374,0.374l0,1.371c0,0.187 -0.187,0.374 -0.374,0.374l-3.801,0l0,1.495l3.801,0c0.187,0 0.374,0.187 0.374,0.374l0,1.371c0,0.187 -0.187,0.374 -0.374,0.374l-5.608,0c-0.125,0 -0.187,-0.062 -0.25,-0.125c-0.062,-0.062 -0.124,-0.187 -0.124,-0.249l0,-8.599c0,-0.125 0.062,-0.187 0.124,-0.249c0.063,-0.063 0.187,-0.125 0.25,-0.125l5.608,0c0.187,0 0.374,0.187 0.374,0.374l0,1.371Z" style="fill:#00b900;fill-rule:nonzero;"/></svg>