<?xml version="1.0" encoding="UTF-8" standalone="no"?><!DOCTYPE svg PUBLIC "-//W3C//DTD SVG 1.1//EN" "http://www.w3.org/Graphics/SVG/1.1/DTD/svg11.dtd"><svg width="100%" height="100%" viewBox="0 0 48 48" version="1.1" xmlns="http://www.w3.org/2000/svg" xmlns:xlink="http://www.w3.org/1999/xlink" xml:space="preserve" xmlns:serif="http://www.serif.com/" style="fill-rule:evenodd;clip-rule:evenodd;stroke-linejoin:round;stroke-miterlimit:2;"><path d="M34.51,39.826c-0,0 -1.418,-1.653 -2.481,-3.071c4.961,-1.417 6.85,-4.487 6.85,-4.487c-1.535,1.062 -3.07,1.771 -4.369,2.244c-1.89,0.826 -3.662,1.299 -5.433,1.653c-3.661,0.709 -6.968,0.472 -9.803,0c-2.126,-0.472 -4.015,-1.063 -5.551,-1.653c-0.826,-0.355 -1.771,-0.709 -2.716,-1.3c-0.118,-0.118 -0.236,-0.118 -0.354,-0.236c-0.118,0 -0.118,-0.118 -0.118,-0.118c-0.709,-0.354 -1.063,-0.59 -1.063,-0.59c-0,0 1.771,3.07 6.614,4.487c-1.181,1.418 -2.481,3.189 -2.481,3.189c-8.385,-0.236 -11.574,-5.787 -11.574,-5.787c-0,-12.164 5.433,-22.085 5.433,-22.085c5.433,-4.134 10.629,-4.016 10.629,-4.016l0.355,0.473c-6.85,2.008 -10.039,4.96 -10.039,4.96c-0,0 0.827,-0.472 2.244,-1.063c4.015,-1.771 7.204,-2.244 8.621,-2.362c0.237,0 0.473,-0.118 0.591,-0.118c2.362,-0.354 4.96,-0.354 7.677,-0.118c3.543,0.472 7.44,1.417 11.337,3.661c-0,0 -2.952,-2.834 -9.448,-4.842l0.473,-0.591c-0,0 5.196,-0.118 10.629,4.016c-0,0 5.433,9.921 5.433,22.085c0.118,-0.118 -3.071,5.433 -11.456,5.669Zm-3.78,-17.715c-2.125,0 -3.897,1.889 -3.897,4.251c-0,2.362 1.772,4.252 3.897,4.252c2.126,0 3.898,-1.89 3.898,-4.252c-0,-2.362 -1.772,-4.251 -3.898,-4.251Zm-13.818,0c-2.126,0 -3.897,1.889 -3.897,4.251c-0,2.362 1.771,4.252 3.897,4.252c2.126,0 3.898,-1.89 3.898,-4.252c-0,-2.362 -1.772,-4.251 -3.898,-4.251Z" style="fill:#7289da;fill-rule:nonzero;"/></svg>