<?xml version="1.0" encoding="UTF-8" standalone="no"?><!DOCTYPE svg PUBLIC "-//W3C//DTD SVG 1.1//EN" "http://www.w3.org/Graphics/SVG/1.1/DTD/svg11.dtd"><svg width="100%" height="100%" viewBox="0 0 48 48" version="1.1" xmlns="http://www.w3.org/2000/svg" xmlns:xlink="http://www.w3.org/1999/xlink" xml:space="preserve" xmlns:serif="http://www.serif.com/" style="fill-rule:evenodd;clip-rule:evenodd;stroke-linejoin:round;stroke-miterlimit:2;"><path d="M43.052,13.016c0,-2.14 -0.85,-4.192 -2.363,-5.705c-1.513,-1.513 -3.565,-2.363 -5.705,-2.363l-21.969,0c-2.139,0 -4.191,0.85 -5.704,2.363c-1.513,1.513 -2.363,3.565 -2.363,5.705l0,21.968c0,2.14 0.85,4.192 2.363,5.705c1.513,1.513 3.565,2.363 5.704,2.363l21.969,0c2.14,0 4.192,-0.85 5.705,-2.363c1.513,-1.513 2.363,-3.565 2.363,-5.705l0,-21.968Zm-2,-0l0,21.968c0,1.609 -0.64,3.153 -1.778,4.291c-1.137,1.138 -2.681,1.777 -4.29,1.777l-21.969,0c-1.609,0 -3.152,-0.639 -4.29,-1.777c-1.138,-1.138 -1.777,-2.682 -1.777,-4.291l0,-21.968c0,-1.609 0.639,-3.153 1.777,-4.291c1.138,-1.138 2.681,-1.777 4.29,-1.777l21.969,0c1.609,0 3.153,0.639 4.29,1.777c1.138,1.138 1.778,2.682 1.778,4.291Zm-17.07,1.005c-5.54,-0 -10.038,4.498 -10.038,10.038c0,5.54 4.498,10.038 10.038,10.038c5.54,-0 10.038,-4.498 10.038,-10.038c0,-5.54 -4.498,-10.038 -10.038,-10.038Zm0,2c4.436,-0 8.038,3.602 8.038,8.038c0,4.437 -3.602,8.038 -8.038,8.038c-4.436,-0 -8.038,-3.601 -8.038,-8.038c0,-4.436 3.602,-8.038 8.038,-8.038Zm10.393,-4.432c1.214,-0 2.2,1.011 2.2,2.257c0,1.245 -0.986,2.256 -2.2,2.256c-1.214,-0 -2.2,-1.011 -2.2,-2.256c0,-1.246 0.986,-2.257 2.2,-2.257Z" style="fill:url(#_Linear1);"/><defs><linearGradient id="_Linear1" x1="0" y1="0" x2="1" y2="0" gradientUnits="userSpaceOnUse" gradientTransform="matrix(-36.0244,36.0244,-36.0244,-36.0244,42.0451,6.01263)"><stop offset="0" style="stop-color:#7d3aaf;stop-opacity:1"/><stop offset="0.29" style="stop-color:#97308e;stop-opacity:1"/><stop offset="0.56" style="stop-color:#ea0f26;stop-opacity:1"/><stop offset="1" style="stop-color:#f8d602;stop-opacity:1"/></linearGradient></defs></svg>