<?xml version="1.0" encoding="UTF-8" standalone="no"?><!DOCTYPE svg PUBLIC "-//W3C//DTD SVG 1.1//EN" "http://www.w3.org/Graphics/SVG/1.1/DTD/svg11.dtd"><svg width="100%" height="100%" viewBox="0 0 48 48" version="1.1" xmlns="http://www.w3.org/2000/svg" xmlns:xlink="http://www.w3.org/1999/xlink" xml:space="preserve" xmlns:serif="http://www.serif.com/" style="fill-rule:evenodd;clip-rule:evenodd;stroke-linejoin:round;stroke-miterlimit:2;"><path d="M39.426,26.597c-4.846,-1.428 -8.784,-4.024 -8.784,-8.957c-0,-0.778 -0.476,-1.384 -1.211,-1.384c-0.736,0 -1.298,0.562 -1.298,1.255c-0,0.692 -0.649,1.211 -1.428,1.211l-5.495,0c-0.779,0 -1.428,-0.562 -1.428,-1.211c-0,-0.649 -0.562,-1.255 -1.298,-1.255c-0.736,0 -1.125,0.606 -1.125,1.384c0.13,2.467 -0.692,7.356 -8.61,9.043c-0.779,0.174 -1.428,0.303 -1.515,0.303c-0.043,0.044 -0.086,0.693 -0.086,1.471l-0,8.308c-0,0.779 0.649,1.428 1.428,1.428l30.806,0c0.779,0 1.428,-0.649 1.428,-1.428l-0,-9.779c-0,0 -0.606,-0.173 -1.384,-0.389Zm-13.413,-1.255l1.557,-1.601c0.217,-0.259 0.606,-0.259 0.866,0c0.259,0.26 0.259,0.649 -0,0.909l-1.558,1.644c-0.216,0.26 -0.606,0.26 -0.865,0c-0.217,-0.26 -0.217,-0.692 -0,-0.952Zm-2.683,-2.942c-0,-0.346 0.26,-0.649 0.606,-0.649l0.043,0c0.346,0 0.606,0.303 0.606,0.649l-0,2.336c-0,0.347 -0.26,0.649 -0.606,0.649l-0.043,0c-0.346,0 -0.606,-0.302 -0.606,-0.649l-0,-2.336Zm-5.711,6.057c-0,-0.346 0.259,-0.649 0.605,-0.649l2.207,0c0.303,0 0.606,0.303 0.606,0.649c-0,0.39 -0.303,0.693 -0.606,0.693l-2.207,0c-0.346,0 -0.605,-0.303 -0.605,-0.693Zm4.283,3.159l-1.557,1.601c-0.26,0.259 -0.606,0.259 -0.866,0c-0.259,-0.26 -0.259,-0.649 -0,-0.909l1.515,-1.644c0.259,-0.26 0.649,-0.26 0.908,0c0.216,0.26 0.216,0.692 -0,0.952Zm-0,-5.322c-0.259,0.26 -0.649,0.26 -0.908,0l-1.515,-1.644c-0.259,-0.26 -0.259,-0.649 -0,-0.909c0.26,-0.259 0.606,-0.259 0.866,0l1.557,1.601c0.216,0.26 0.216,0.692 -0,0.952Zm2.683,8.264c-0,0.346 -0.26,0.649 -0.606,0.649l-0.043,0c-0.346,0 -0.606,-0.303 -0.606,-0.649l-0,-2.336c-0,-0.346 0.26,-0.649 0.606,-0.649l0.043,0c0.346,0 0.606,0.303 0.606,0.649l-0,2.336Zm-0.606,-4.543l-0.043,0c-0.822,0 -1.471,-0.692 -1.471,-1.558c-0,-0.822 0.649,-1.514 1.471,-1.514l0.043,0c0.822,0 1.428,0.692 1.428,1.514c0.043,0.866 -0.606,1.558 -1.428,1.558Zm4.457,3.202c-0.26,0.259 -0.649,0.259 -0.866,0l-1.557,-1.601c-0.217,-0.26 -0.217,-0.692 -0,-0.952c0.216,-0.26 0.649,-0.26 0.865,0l1.558,1.644c0.216,0.26 0.216,0.649 -0,0.909Zm1.254,-4.067l-2.206,0c-0.303,0 -0.606,-0.303 -0.606,-0.693c-0,-0.346 0.26,-0.649 0.606,-0.649l2.206,0c0.303,0 0.606,0.303 0.606,0.649c-0,0.39 -0.303,0.693 -0.606,0.693Zm-9.086,-14.192c2.207,-0.173 4.933,-0.216 7.615,0c1.904,0.173 4.111,0.13 4.111,1.384l10.514,0c-0.217,-1.427 -3.159,-6.36 -18.389,-6.533c-16.052,-0.13 -19.427,5.106 -19.384,6.533l10.471,0c-0,-1.168 1.73,-1.125 5.062,-1.384Zm-6.101,5.754c0.649,0 1.039,-0.562 1.039,-1.081l-0,-2.164l-10.471,0l-0,2.294c-0,0.562 0.389,0.951 1.168,0.951l8.264,0Zm28.427,-3.245l-10.514,0l-0,2.164c-0,0.519 0.39,1.081 1.039,1.081l8.264,0c0.779,0 1.168,-0.389 1.168,-0.951l0.043,-2.294Z" style="fill-rule:nonzero;"/></svg>