<?xml version="1.0" encoding="UTF-8" standalone="no"?><!DOCTYPE svg PUBLIC "-//W3C//DTD SVG 1.1//EN" "http://www.w3.org/Graphics/SVG/1.1/DTD/svg11.dtd"><svg width="100%" height="100%" viewBox="0 0 48 48" version="1.1" xmlns="http://www.w3.org/2000/svg" xmlns:xlink="http://www.w3.org/1999/xlink" xml:space="preserve" xmlns:serif="http://www.serif.com/" style="fill-rule:evenodd;clip-rule:evenodd;stroke-linejoin:round;stroke-miterlimit:2;"><path d="M24,2c-12.142,0 -22,9.858 -22,22c0,12.143 9.858,22 22,22c12.142,0 22,-9.857 22,-22c0,-12.142 -9.858,-22 -22,-22Zm0,2c11.038,0 20,8.962 20,20c0,11.039 -8.962,20 -20,20c-11.038,0 -20,-8.961 -20,-20c0,-11.038 8.962,-20 20,-20Zm14.183,24.693c0.695,0 1.286,-0.591 1.286,-1.286c-0,-0.695 -0.591,-1.286 -1.286,-1.286c-0.696,0 -1.287,0.591 -1.287,1.286c0,0.695 0.591,1.286 1.287,1.286Zm-10.046,-2.885l-4.311,0c0.104,0.73 0.556,1.112 1.286,1.112c0.556,0 0.939,-0.243 1.078,-0.625l1.842,0.521c-0.452,1.113 -1.564,1.773 -2.92,1.773c-2.259,0 -3.302,-1.773 -3.302,-3.302c-0,-1.495 0.904,-3.268 3.163,-3.268c2.399,0 3.198,1.808 3.198,3.163c-0,0.313 -0,0.487 -0.034,0.626Zm-18.424,2.711l2.051,0l-0,-4.658l1.981,0l-0,4.658l2.051,0l-0,-6.396l-4.032,0l-0,-0.382c-0,-0.417 0.313,-0.695 0.765,-0.695l1.216,0l-0,-1.738l-1.529,0c-1.495,0 -2.503,0.938 -2.503,2.294l-0,0.521l-1.182,0l-0,1.738l1.182,0l-0,4.658Zm8.482,0l1.807,0l2.295,-6.361l-2.086,0l-1.112,3.72l-1.113,-3.755l-2.085,0l2.294,6.396Zm18.701,-4.658l-1.077,0c-0.695,0 -1.078,0.522 -1.078,1.426l0,3.232l-2.085,0l-0,-4.658l-0.87,0c-0.695,0 -1.077,0.522 -1.077,1.426l0,3.232l-2.086,0l0,-6.396l2.086,0l0,0.974c0.348,-0.765 0.799,-0.974 1.495,-0.974l2.537,0l0,0.974c0.348,-0.765 0.8,-0.974 1.495,-0.974l0.695,0l-0.035,1.738Zm-10.741,0.73c-0.035,-0.556 -0.452,-1.042 -1.147,-1.042c-0.66,0 -1.043,0.278 -1.182,1.042l2.329,0Z" style="fill:#1dbf73;"/></svg>