<?xml version="1.0" encoding="UTF-8" standalone="no"?><!DOCTYPE svg PUBLIC "-//W3C//DTD SVG 1.1//EN" "http://www.w3.org/Graphics/SVG/1.1/DTD/svg11.dtd"><svg width="100%" height="100%" viewBox="0 0 48 48" version="1.1" xmlns="http://www.w3.org/2000/svg" xmlns:xlink="http://www.w3.org/1999/xlink" xml:space="preserve" xmlns:serif="http://www.serif.com/" style="fill-rule:evenodd;clip-rule:evenodd;stroke-linejoin:round;stroke-miterlimit:2;"><path d="M34.243,2.063l-20.536,-0c-0.952,-0 -1.703,0.801 -1.703,1.753l0,40.368c0,0.952 0.751,1.753 1.703,1.753l20.536,-0c0.951,-0 1.752,-0.801 1.752,-1.753l0,-40.368c0,-0.952 -0.801,-1.753 -1.753,-1.753Zm-11.92,40.168c0,-0.952 0.751,-1.703 1.652,-1.703c0.952,-0 1.703,0.751 1.703,1.703c0,0.902 -0.751,1.653 -1.703,1.653c-0.951,0 -1.652,-0.751 -1.652,-1.653Zm-9.016,-2.905l0,-31.904l21.387,-0l0,31.904l-21.387,-0Z" style="fill-rule:nonzero;"/></svg>