<?xml version="1.0" encoding="UTF-8" standalone="no"?><!DOCTYPE svg PUBLIC "-//W3C//DTD SVG 1.1//EN" "http://www.w3.org/Graphics/SVG/1.1/DTD/svg11.dtd"><svg width="100%" height="100%" viewBox="0 0 48 48" version="1.1" xmlns="http://www.w3.org/2000/svg" xmlns:xlink="http://www.w3.org/1999/xlink" xml:space="preserve" xmlns:serif="http://www.serif.com/" style="fill-rule:evenodd;clip-rule:evenodd;stroke-linejoin:round;stroke-miterlimit:2;"><path d="M16.09,11.979l-9.09,-1.137l0,32.133l24.23,-0c2.591,-0 5.076,-1.029 6.908,-2.861c1.833,-1.833 2.862,-4.318 2.862,-6.909l0,-22.363l-9.09,1.137c-0.502,-3.92 -3.855,-6.954 -7.91,-6.954c-4.055,-0 -7.408,3.034 -7.91,6.954Zm22.91,1.129l0,20.097c0,2.061 -0.819,4.037 -2.276,5.494c-1.457,1.457 -3.433,2.276 -5.494,2.276l-22.23,-0l0,-27.867l15,1.875l15,-1.875Zm-15,7.985c-1.329,-2.347 -3.849,-3.932 -6.737,-3.932c-4.27,-0 -7.737,3.467 -7.737,7.737c0,4.27 3.467,7.737 7.737,7.737c0.293,-0 0.581,-0.016 0.865,-0.048l-0.099,0.08l5.971,6.317l5.998,-6.345l-0.06,-0.045c0.263,0.027 0.529,0.041 0.799,0.041c4.27,-0 7.737,-3.467 7.737,-7.737c0,-4.27 -3.467,-7.737 -7.737,-7.737c-2.888,-0 -5.408,1.585 -6.737,3.932Zm0,14.979l-2.984,-3.156c0.96,-0.59 1.928,-0.892 2.913,-0.89c1.002,0.003 2.01,0.316 3.031,0.915l-2.96,3.131Zm-6.737,-16.911c3.166,-0 5.737,2.571 5.737,5.737c0,3.166 -2.571,5.737 -5.737,5.737c-3.166,-0 -5.737,-2.571 -5.737,-5.737c0,-3.166 2.571,-5.737 5.737,-5.737Zm7.737,5.737c0,-3.166 2.571,-5.737 5.737,-5.737c3.166,-0 5.737,2.571 5.737,5.737c0,3.166 -2.571,5.737 -5.737,5.737c-3.166,-0 -5.737,-2.571 -5.737,-5.737Zm-1,3.805c-0.283,0.499 -0.619,0.963 -1.002,1.386c0.312,-0.043 0.624,-0.063 0.936,-0.063c0.363,0.001 0.727,0.031 1.093,0.09c-0.393,-0.429 -0.738,-0.903 -1.027,-1.413Zm6.38,-7.819c-0.036,-0.033 -0.049,-0.085 -0.032,-0.131c0.016,-0.047 0.059,-0.079 0.108,-0.082c0.093,-0.007 0.186,-0.01 0.281,-0.01c2.338,-0 4.237,1.898 4.237,4.237c0,2.339 -1.899,4.237 -4.237,4.237c-2.339,-0 -4.237,-1.898 -4.237,-4.237c0,-0.578 0.116,-1.129 0.326,-1.632c0.02,-0.044 0.064,-0.073 0.113,-0.073c0.049,-0.001 0.093,0.027 0.114,0.072c0.339,0.678 1.041,1.143 1.85,1.143c1.144,-0 2.072,-0.928 2.072,-2.071c0,-0.566 -0.227,-1.079 -0.595,-1.453Zm-13.474,-0c-0.036,-0.033 -0.049,-0.085 -0.032,-0.131c0.016,-0.047 0.059,-0.079 0.108,-0.082c0.093,-0.007 0.187,-0.01 0.281,-0.01c2.339,-0 4.237,1.898 4.237,4.237c0,2.339 -1.898,4.237 -4.237,4.237c-2.338,-0 -4.237,-1.898 -4.237,-4.237c0,-0.578 0.116,-1.129 0.326,-1.632c0.02,-0.044 0.064,-0.073 0.113,-0.073c0.049,-0.001 0.094,0.027 0.114,0.072c0.34,0.678 1.041,1.143 1.851,1.143c1.143,-0 2.071,-0.928 2.071,-2.071c0,-0.566 -0.227,-1.079 -0.595,-1.453Zm13.019,-8.657c-0.38,-2.933 -2.89,-5.202 -5.925,-5.202c-3.035,0 -5.545,2.269 -5.925,5.202l5.925,0.74l5.925,-0.74Z" style="fill:#42b549;"/></svg>