<?xml version="1.0" encoding="UTF-8" standalone="no"?><!DOCTYPE svg PUBLIC "-//W3C//DTD SVG 1.1//EN" "http://www.w3.org/Graphics/SVG/1.1/DTD/svg11.dtd"><svg width="100%" height="100%" viewBox="0 0 48 48" version="1.1" xmlns="http://www.w3.org/2000/svg" xmlns:xlink="http://www.w3.org/1999/xlink" xml:space="preserve" xmlns:serif="http://www.serif.com/" style="fill-rule:evenodd;clip-rule:evenodd;stroke-linejoin:round;stroke-miterlimit:2;"><path d="M4.352,17.867l-2.311,0l0,12.266l2.311,0c2.611,8.344 10.407,14.406 19.607,14.406c9.2,0 16.995,-6.062 19.606,-14.406l2.394,0l0,-12.266l-2.394,0c-2.611,-8.344 -10.406,-14.406 -19.606,-14.406c-9.2,0 -16.996,6.062 -19.607,14.406Zm20.607,16.905l0,7.665c1.667,-0.342 3.186,-1.527 4.478,-3.266c0.756,-1.019 1.431,-2.224 2.006,-3.579c-2.005,-0.47 -4.191,-0.755 -6.484,-0.82Zm-2,0c-2.294,0.065 -4.479,0.35 -6.484,0.82c0.574,1.355 1.249,2.56 2.005,3.579c1.292,1.739 2.811,2.924 4.479,3.266l0,-7.665Zm10.423,1.349c-0.662,1.616 -1.452,3.047 -2.339,4.242c-0.3,0.403 -0.61,0.78 -0.931,1.129c2.485,-0.876 4.727,-2.265 6.6,-4.042c-1.014,-0.507 -2.13,-0.953 -3.33,-1.329Zm-18.847,0c-1.2,0.376 -2.316,0.822 -3.33,1.329c1.872,1.776 4.115,3.166 6.6,4.042c-0.321,-0.349 -0.631,-0.726 -0.93,-1.129c-0.888,-1.195 -1.677,-2.626 -2.34,-4.242Zm26.922,-5.988l-6.382,0c-0.253,1.447 -0.594,2.824 -1.009,4.11c1.488,0.471 2.855,1.042 4.073,1.694c1.434,-1.701 2.567,-3.663 3.318,-5.804Zm-28.615,0l-6.382,0c0.751,2.141 1.885,4.103 3.318,5.804c1.218,-0.652 2.586,-1.223 4.073,-1.694c-0.415,-1.286 -0.755,-2.663 -1.009,-4.11Zm20.205,0l-8.088,0l0,2.639c2.548,0.068 4.972,0.396 7.187,0.935c0.365,-1.12 0.668,-2.317 0.901,-3.574Zm-10.088,-0l-8.089,-0c0.233,1.257 0.536,2.454 0.902,3.574c2.215,-0.539 4.639,-0.867 7.187,-0.935l0,-2.639Zm-6.949,-9.443l-1.404,6.62l-1.655,0l-0.902,-3.761l-0.853,3.811l-1.655,0l-1.404,-6.67l1.555,0l0.752,4.163l0.953,-4.163l1.354,0l0.902,4.163l0.803,-4.163l1.554,0Zm7.924,2.859l-0.903,3.811l-1.655,0l-1.404,-6.67l1.605,0l0.752,4.163l0.902,-4.163l1.354,0l0.953,4.163l0.752,-4.163l1.605,0l-1.404,6.62l-1.655,0l-0.902,-3.761Zm7.923,-2.859l1.604,0l0.753,4.163l0.902,-4.163l1.354,0l0.953,4.163l0.752,-4.163l1.605,0l-1.404,6.62l-1.705,0l-0.903,-3.761l-0.852,3.761l-1.655,0l-1.404,-6.62Zm-19.015,-2.823c0.256,-1.459 0.599,-2.846 1.019,-4.141c-1.483,-0.469 -2.847,-1.037 -4.063,-1.687c-1.443,1.707 -2.584,3.677 -3.338,5.828l6.382,0Zm10.117,0l0,-2.673c-2.544,-0.068 -4.964,-0.395 -7.177,-0.933c-0.37,1.13 -0.677,2.337 -0.912,3.606l8.089,0Zm10.088,0c-0.235,-1.269 -0.542,-2.476 -0.912,-3.606c-2.212,0.538 -4.632,0.865 -7.176,0.933l0,2.673l8.088,0Zm8.41,0c-0.754,-2.151 -1.895,-4.121 -3.338,-5.828c-1.215,0.65 -2.579,1.218 -4.062,1.687c0.419,1.295 0.763,2.682 1.018,4.141l6.382,0Zm-18.498,-12.304c-1.668,0.342 -3.187,1.527 -4.479,3.266c-0.75,1.011 -1.42,2.206 -1.992,3.548c2.001,0.468 4.183,0.752 6.471,0.817l-0,-7.631Zm2,0l-0,7.631c2.288,-0.065 4.469,-0.349 6.47,-0.817c-0.571,-1.342 -1.242,-2.537 -1.992,-3.548c-1.292,-1.739 -2.811,-2.924 -4.478,-3.266Zm-7.154,0.946c-2.474,0.871 -4.709,2.253 -6.576,4.019c1.01,0.503 2.123,0.947 3.319,1.321c0.66,-1.605 1.445,-3.025 2.327,-4.212c0.299,-0.403 0.609,-0.78 0.93,-1.128Zm12.307,0c0.321,0.348 0.631,0.725 0.931,1.128c0.881,1.187 1.666,2.607 2.326,4.212c1.196,-0.374 2.309,-0.818 3.32,-1.321c-1.868,-1.766 -4.102,-3.148 -6.577,-4.019Z"/></svg>