<?xml version="1.0" encoding="UTF-8" standalone="no"?><!DOCTYPE svg PUBLIC "-//W3C//DTD SVG 1.1//EN" "http://www.w3.org/Graphics/SVG/1.1/DTD/svg11.dtd"><svg width="100%" height="100%" viewBox="0 0 49 49" version="1.1" xmlns="http://www.w3.org/2000/svg" xmlns:xlink="http://www.w3.org/1999/xlink" xml:space="preserve" xmlns:serif="http://www.serif.com/" style="fill-rule:evenodd;clip-rule:evenodd;stroke-linejoin:round;stroke-miterlimit:2;"><path d="M39.883,5.5l-30.713,0c-2.021,0 -3.643,1.644 -3.643,3.588l0,30.825c0,1.944 1.622,3.587 3.643,3.587l30.657,0c2.021,0 3.644,-1.643 3.644,-3.587l0,-30.807c0.065,-1.951 -1.557,-3.606 -3.588,-3.606Zm0,2c0.886,0 1.622,0.696 1.588,1.548l0,30.865c0,0.869 -0.741,1.587 -1.644,1.587l-30.657,0c-0.903,0 -1.643,-0.718 -1.643,-1.587l0,-30.825c0,-0.869 0.74,-1.588 1.643,-1.588l30.713,0Zm-23.048,30.316l-5.622,0l0,-18.05l5.622,0l0,18.05Zm21.009,0l-5.622,0l0,-8.759c0,-2.071 -0.06,-4.793 -2.9,-4.793c-2.9,0 -3.374,2.308 -3.374,4.616l0,8.936l-5.622,0l0,-18.05l5.386,0l0,2.486l0.059,0c0.769,-1.421 2.604,-2.9 5.326,-2.9c5.681,0 6.747,3.728 6.747,8.64l0,9.824Zm-23.85,-20.535c-1.775,0 -3.255,-1.48 -3.255,-3.255c0,-1.776 1.48,-3.255 3.255,-3.255c1.776,0 3.255,1.479 3.255,3.255c0,1.834 -1.42,3.255 -3.255,3.255Z" style="fill:#0a66c2;"/></svg>