<?xml version="1.0" encoding="UTF-8" standalone="no"?><!DOCTYPE svg PUBLIC "-//W3C//DTD SVG 1.1//EN" "http://www.w3.org/Graphics/SVG/1.1/DTD/svg11.dtd"><svg width="100%" height="100%" viewBox="0 0 48 48" version="1.1" xmlns="http://www.w3.org/2000/svg" xmlns:xlink="http://www.w3.org/1999/xlink" xml:space="preserve" xmlns:serif="http://www.serif.com/" style="fill-rule:evenodd;clip-rule:evenodd;stroke-linejoin:round;stroke-miterlimit:2;"><path d="M19.764,22.821c2.391,-1.162 3.689,-2.87 3.689,-5.602c0,-5.329 -3.963,-6.696 -8.608,-6.696l-12.708,0l0,26.918l13.049,0c4.919,0 9.497,-2.323 9.497,-7.788c0,-3.416 -1.64,-5.876 -4.919,-6.832Zm-11.683,-7.652l5.534,0c2.118,0 4.031,0.615 4.031,3.074c0,2.255 -1.503,3.211 -3.621,3.211l-5.944,0l0,-6.285Zm6.286,17.695l-6.285,0l-0,-7.379l6.422,0c2.596,0 4.236,1.093 4.236,3.826c-0,2.733 -1.982,3.553 -4.374,3.553Zm27.192,-18.753l-10.932,0l0,-2.664l10.932,0l0,2.664Zm4.304,13.391c0,-5.807 -3.348,-10.59 -9.497,-10.59c-5.943,0 -9.974,4.441 -9.974,10.317c0,6.08 3.826,10.248 9.974,10.248c4.646,0 7.652,-2.118 9.087,-6.559l-4.713,0c-0.478,1.64 -2.596,2.528 -4.236,2.528c-3.143,0 -4.782,-1.845 -4.782,-4.988l14.073,0c0.069,-0.273 0.069,-0.614 0.069,-0.956Zm-14.075,-2.391c0.206,-2.528 1.846,-4.168 4.442,-4.168c2.664,0 4.031,1.572 4.236,4.168l-8.677,0Z" style="fill:#1769ff;fill-rule:nonzero;"/></svg>