<?xml version="1.0" encoding="UTF-8" standalone="no"?><!DOCTYPE svg PUBLIC "-//W3C//DTD SVG 1.1//EN" "http://www.w3.org/Graphics/SVG/1.1/DTD/svg11.dtd"><svg width="100%" height="100%" viewBox="0 0 48 48" version="1.1" xmlns="http://www.w3.org/2000/svg" xmlns:xlink="http://www.w3.org/1999/xlink" xml:space="preserve" xmlns:serif="http://www.serif.com/" style="fill-rule:evenodd;clip-rule:evenodd;stroke-linejoin:round;stroke-miterlimit:2;"><path d="M24,2c-12.142,0 -22,9.858 -22,22c0,12.142 9.858,22 22,22c12.142,0 22,-9.858 22,-22c0,-12.142 -9.858,-22 -22,-22Zm0,2c11.039,0 20,8.961 20,20c0,11.038 -8.961,20 -20,20c-11.038,0 -20,-8.962 -20,-20c0,-11.039 8.962,-20 20,-20Zm12.042,18.369l-1.356,-0.08l-0,0.452l0.346,0.106c0.346,0.107 0.505,0.24 0.505,0.479c-0,0.133 -0.053,0.239 -0.106,0.425c-0.16,0.426 -1.064,2.632 -1.542,3.669c-0.585,-1.436 -1.356,-3.536 -1.462,-3.908c-0.027,-0.08 -0.053,-0.159 -0.053,-0.213c0,-0.212 0.133,-0.398 0.452,-0.452l0.452,-0.106l0,-0.452l-1.808,0.053l-1.435,-0.053l-0,0.452l0.239,0.08c0.319,0.106 0.398,0.213 0.585,0.664c1.089,2.446 1.595,3.802 2.259,5.53c-0.664,1.408 -1.435,1.807 -2.153,1.807c-0.372,0 -0.532,-0.159 -0.585,-0.425l-0.213,-1.01l-0.531,0.026c-0.107,0.612 -0.213,1.276 -0.372,1.834c0.345,0.24 0.903,0.373 1.329,0.373c0.904,0 2.286,-0.107 3.562,-3.111l2.126,-4.997c0.16,-0.425 0.24,-0.452 0.718,-0.665l0.292,-0.106l-0,-0.452l-1.249,0.08Zm-13.185,5.662c-0.585,0 -0.904,-0.399 -0.904,-1.382l0,-3.589l1.941,0.16l0.106,-0.904l-2.047,0.08l0,-2.021l-0.558,0c-0.186,0.824 -0.372,1.462 -1.036,1.861c-0.373,0.266 -0.798,0.372 -0.931,0.372l0,0.505l1.17,0l0,4.067c0,1.117 0.744,1.675 1.754,1.675c0.771,0 1.569,-0.319 1.861,-1.01l-0.292,-0.372c-0.107,0.239 -0.532,0.558 -1.064,0.558Zm3.35,-4.519c0,-0.611 0.558,-0.851 1.169,-0.851c0.479,0 0.877,0.16 0.957,0.399l0.319,1.01l0.479,-0.026c0.053,-0.532 0.079,-1.143 0.159,-1.622c-0.425,-0.186 -1.302,-0.292 -1.861,-0.292c-1.302,0 -2.339,0.558 -2.339,1.834c0,2.18 3.243,1.754 3.243,3.376c0,0.585 -0.345,0.983 -1.169,0.983c-0.718,0 -1.09,-0.398 -1.25,-0.77l-0.372,-0.957l-0.478,0.026c0.026,0.293 0.026,0.665 0.026,1.01c0,0.346 0,0.665 -0.026,0.824c0,0 0.983,0.372 2.02,0.372c1.356,0 2.445,-0.637 2.445,-1.94c0,-2.233 -3.322,-1.887 -3.322,-3.376Zm-8.028,3.509c-0.426,0.93 -1.01,1.01 -1.675,1.01l-1.967,0c-0.665,0 -0.984,-0.266 -0.984,-0.824l0,-3.03c0,0 1.436,0 1.941,0.053c0.372,0.026 0.611,0.133 0.718,0.638l0.159,0.691l0.558,0l-0.026,-1.728l0.08,-1.754l-0.585,0l-0.186,0.77c-0.107,0.506 -0.186,0.585 -0.691,0.665c-0.585,0.053 -1.968,0.053 -1.968,0.053l0,-3.562c0,-0.133 0.027,-0.213 0.24,-0.213l3.03,0c0.532,0 0.824,0.452 1.037,1.303l0.159,0.665l0.505,0c0.107,-1.914 0.186,-2.738 0.186,-2.738c0,0 -1.302,0.133 -2.073,0.133l-3.854,0l-2.074,-0.054l0,0.559l0.691,0.132c0.505,0.08 0.612,0.187 0.665,0.638c0,0 0.026,1.33 0.026,3.509c0,2.154 -0.026,3.483 -0.026,3.483c0,0.372 -0.16,0.531 -0.665,0.611l-0.691,0.133l0,0.558l2.074,-0.053l3.455,0c0.771,0 2.579,0.053 2.579,0.053c0.053,-0.478 0.319,-2.631 0.345,-2.871l-0.478,0l-0.505,1.17Z" style="fill:#f56400;"/></svg>